# xmcd CD database file
#
# Track frame offsets:
#	150
#	18557
#	35211
#	51696
#	69374
#	86424
#	98315
#	115458
#	128768
#	146983
#	159535
#	175684
#
# Disc length: 2492 seconds
#
# Revision: 2
# Processed by: cddbd v1.4PL0 Copyright (c) Steve Scherf et al.
# Submitted via: CDex 1.50
#
DISCID=a609ba0c
DTITLE=Shelley King - The Highway
DYEAR=2002
DGENRE=Country
TTITLE0=Running Out Of Blue
TTITLE1=Texas Blue Moon 
TTITLE2=Crescent City
TTITLE3=The Highway
TTITLE4=Walk On
TTITLE5=Texas Style Zydeco
TTITLE6=Sunshine
TTITLE7=Who Needs Tears
TTITLE8=More Than It's Worth
TTITLE9=California
TTITLE10=Glad You Called
TTITLE11=Pack It Up
EXTD=YEAR: 2002
EXTT0=
EXTT1=
EXTT2=
EXTT3=
EXTT4=
EXTT5=
EXTT6=
EXTT7=
EXTT8=
EXTT9=
EXTT10=
EXTT11=
PLAYORDER=
